1.9Hzlow3min_grf.mot
version=1
nRows=27
nColumns 19
inDegrees=yes
endheader
time	1_ground_force_vx	1_ground_force_vy	1_ground_force_vz	1_ground_force_px	1_ground_force_py	1_ground_force_pz	1_ground_torque_x	1_ground_torque_y	1_ground_torque_z	2_ground_force_vx	2_ground_force_vy	2_ground_force_vz	2_ground_force_px	2_ground_force_py	2_ground_force_pz	2_ground_torque_x	2_ground_torque_y	2_ground_torque_z
            3.751500	            0.508318	            2.155618	            1.796405	           -0.233013	            0.005581	           -0.255695	           -0.340636	            0.009876	           -0.071677	            0.840543	            0.561683	           -1.734727	           -0.232311	            0.006130	           -0.833667	           -0.112857	            0.037471	           -0.018667
            3.752000	            0.600363	            1.434180	            1.884797	           -0.233013	            0.005581	           -0.255695	           -0.456699	           -0.027074	           -0.067613	            1.074793	            0.562528	           -1.734827	           -0.232311	            0.006130	           -0.833667	           -0.112744	           -0.009322	           -0.150787
            3.752500	            0.921001	            2.876367	            1.890184	           -0.233013	            0.005581	           -0.255695	           -0.457642	           -0.008359	           -0.072696	            0.979264	            1.113296	           -1.357391	           -0.232311	            0.006130	           -0.833667	           -0.074876	           -0.085009	           -0.094523
            3.753000	            0.507665	            3.237998	            1.617619	           -0.233013	            0.005581	           -0.255695	           -0.389967	            0.010102	           -0.127987	            0.698000	            1.113620	           -1.732696	           -0.232311	            0.006130	           -0.833667	           -0.093824	           -0.028697	           -0.000061
            3.753500	            0.462753	            1.254084	            1.838509	           -0.233013	            0.005581	           -0.255695	           -0.436059	           -0.017569	           -0.148673	            1.074937	            0.561357	           -1.406330	           -0.232311	            0.006130	           -0.833667	           -0.168982	           -0.028834	           -0.037730
            3.754000	            0.507830	            2.336670	            1.613754	           -0.233013	            0.005581	           -0.255695	           -0.427397	            0.001658	           -0.315879	            0.936278	            0.009241	           -1.642882	           -0.232311	            0.006130	           -0.833667	           -0.244473	            0.065489	           -0.056211
            3.754500	            0.507536	            2.697595	            1.523588	           -0.233013	            0.005581	           -0.255695	           -0.479426	           -0.008647	           -0.071431	            1.263583	            0.194406	           -1.595436	           -0.232311	            0.006130	           -0.833667	           -0.169331	            0.056576	           -0.131677
            3.755000	            0.599791	            2.696629	            1.752640	           -0.233013	            0.005581	           -0.255695	           -0.338879	            0.009676	           -0.011398	            0.983046	            0.010080	           -1.830614	           -0.232311	            0.006130	           -0.833667	           -0.187981	            0.027882	           -0.056370
            3.755500	            0.553232	            2.878066	            1.478391	           -0.233013	            0.005581	           -0.255695	           -0.440182	            0.019352	           -0.125855	            0.936340	            0.008739	           -1.502098	           -0.232311	            0.006130	           -0.833667	           -0.225422	           -0.019181	           -0.150773
            3.756000	            0.508429	            3.416888	            1.939383	           -0.233013	            0.005581	           -0.255695	           -0.422358	            0.028272	           -0.052642	            1.027984	            0.562024	           -1.640951	           -0.232311	            0.006130	           -0.833667	           -0.187674	           -0.057193	           -0.056673
            3.756500	            0.508429	            3.416888	            1.939383	           -0.233013	            0.005581	           -0.255695	           -0.441075	           -0.018029	           -0.033996	            0.932332	            1.113796	           -1.545084	           -0.232311	            0.006130	           -0.833667	           -0.187656	           -0.066511	           -0.094407
            3.757000	            0.461969	            3.057527	            1.662815	           -0.233013	            0.005581	           -0.255695	           -0.354075	           -0.017963	           -0.054952	            1.074128	            0.746677	           -1.734170	           -0.232311	            0.006130	           -0.833667	           -0.168966	           -0.028969	           -0.000029
            3.757500	            0.737548	            2.696263	            1.844011	           -0.233013	            0.005581	           -0.255695	           -0.399276	            0.000809	           -0.080614	            0.933681	            0.745332	           -1.499470	           -0.232311	            0.006130	           -0.833667	           -0.037536	           -0.018772	           -0.075452
            3.758000	            0.461954	            2.516927	            1.614641	           -0.233013	            0.005581	           -0.255695	           -0.426956	           -0.008574	           -0.092308	            0.841270	            0.377032	           -1.594600	           -0.232311	            0.006130	           -0.833667	           -0.188048	            0.037603	           -0.131737
            3.758500	            0.782999	            3.597993	            1.756050	           -0.233013	            0.005581	           -0.255695	           -0.395900	            0.037721	           -0.059744	            0.932914	            0.930317	           -1.733453	           -0.232311	            0.006130	           -0.833667	           -0.094199	            0.066099	           -0.075125
            3.759000	            0.461481	            3.238579	            1.480165	           -0.233013	            0.005581	           -0.255695	           -0.346568	            0.047058	           -0.129891	            1.072861	            1.114471	           -1.592071	           -0.232311	            0.006130	           -0.833667	           -0.075038	           -0.037813	           -0.075504
            3.759500	            0.690923	            3.238230	            1.571308	           -0.233013	            0.005581	           -0.255695	           -0.294232	            0.047338	           -0.157842	            0.979079	            1.114802	           -1.779744	           -0.232311	            0.006130	           -0.833667	           -0.112531	           -0.066105	           -0.132140
            3.760000	            0.691217	            2.877306	            1.661474	           -0.233013	            0.005581	           -0.255695	           -0.485626	            0.019574	           -0.157473	            1.026114	            1.113465	           -1.357411	           -0.232311	            0.006130	           -0.833667	           -0.168991	           -0.028767	           -0.056580
            3.760500	            0.370640	            3.597520	            1.848786	           -0.233013	            0.005581	           -0.255695	           -0.456350	            0.000872	           -0.152537	            0.797119	           -0.360065	           -1.503352	           -0.232311	            0.006130	           -0.833667	           -0.187836	           -0.009997	           -0.037654
            3.761000	            0.369878	            2.157164	            1.429899	           -0.233013	            0.005581	           -0.255695	           -0.381410	           -0.036264	           -0.115234	            1.028690	            0.377541	           -1.547752	           -0.232311	            0.006130	           -0.833667	           -0.225593	            0.028082	           -0.150605
            3.761500	            0.782984	            3.057393	            1.707875	           -0.233013	            0.005581	           -0.255695	           -0.449915	            0.046952	           -0.059551	            0.561479	            0.007888	           -1.642723	           -0.232311	            0.006130	           -0.833667	           -0.263249	            0.056170	           -0.112787
            3.762000	            0.782642	            3.057982	            1.570307	           -0.233013	            0.005581	           -0.255695	           -0.387920	            0.047282	           -0.134896	            1.026531	            0.931325	           -1.921205	           -0.232311	            0.006130	           -0.833667	           -0.112874	            0.046789	            0.019067
            3.762500	            0.599743	            2.336295	            1.705238	           -0.233013	            0.005581	           -0.255695	           -0.411970	            0.028469	           -0.086316	            1.168616	            0.561862	           -1.453298	           -0.232311	            0.006130	           -0.833667	           -0.093986	            0.009315	           -0.056477
            3.763000	            0.324865	            1.975513	            1.750231	           -0.233013	            0.005581	           -0.255695	           -0.413621	           -0.018034	           -0.060630	            1.304267	            1.853417	           -2.011896	           -0.232311	            0.006130	           -0.833667	           -0.225261	           -0.057194	           -0.094358
            3.763500	            0.507992	            2.696808	            1.707012	           -0.233013	            0.005581	           -0.255695	           -0.280695	           -0.073386	           -0.053404	            0.981819	            0.377540	           -1.594660	           -0.232311	            0.006130	           -0.833667	           -0.150120	           -0.047739	           -0.018955
            3.764000	            0.554014	            2.336089	            1.751208	           -0.233013	            0.005581	           -0.255695	           -0.451371	           -0.027180	           -0.050815	            0.795167	            0.192045	           -1.407525	           -0.232311	            0.006130	           -0.833667	           -0.131343	           -0.047604	           -0.037813
            3.764500	            0.462688	            1.614615	            1.840055	           -0.233013	            0.005581	           -0.255695	           -0.267249	           -0.017698	           -0.111510	            0.936216	            0.009743	           -1.783666	           -0.232311	            0.006130	           -0.833667	           -0.169280	            0.046989	           -0.094010
